<?xml version="1.0" encoding="UTF-8"?>
<svg version="1.1" xmlns="http://www.w3.org/2000/svg" width="500" height="500">
<path d="M0 0 C1.02996094 -0.00128906 2.05992187 -0.00257813 3.12109375 -0.00390625 C4.74724609 0.00189453 4.74724609 0.00189453 6.40625 0.0078125 C7.49035156 0.00394531 8.57445312 0.00007812 9.69140625 -0.00390625 C10.72136719 -0.00261719 11.75132812 -0.00132812 12.8125 0 C14.24045898 0.00169189 14.24045898 0.00169189 15.69726562 0.00341797 C17.90625 0.1328125 17.90625 0.1328125 18.90625 1.1328125 C19.02857644 2.60531895 19.0839956 4.08346961 19.11157227 5.56079102 C19.13151749 6.50169083 19.15146271 7.44259064 19.17201233 8.41200256 C19.19708107 9.94636208 19.19708107 9.94636208 19.22265625 11.51171875 C19.24343735 12.55351791 19.26421844 13.59531708 19.28562927 14.66868591 C19.35124057 18.01082497 19.41006331 21.35304535 19.46875 24.6953125 C19.51192422 26.95508668 19.55553814 29.21485251 19.59960938 31.47460938 C19.70693367 37.02725671 19.80867812 42.57998571 19.90625 48.1328125 C20.82792969 47.49859375 21.74960937 46.864375 22.69921875 46.2109375 C28.71599274 42.31212658 34.88151019 41.37593818 41.90625 42.1328125 C49.80165608 43.88127613 58.35253805 47.18447617 62.90625 54.1328125 C66.21895 59.83801805 66.15935944 66.01911844 66.46875 72.4453125 C66.53352539 73.69924805 66.53352539 73.69924805 66.59960938 74.97851562 C66.70510307 77.02978185 66.80612315 79.0812773 66.90625 81.1328125 C70.20625 79.8128125 73.50625 78.4928125 76.90625 77.1328125 C76.94383423 75.68660522 76.94383423 75.68660522 76.98217773 74.21118164 C77.07610306 70.64593408 77.17635939 67.08088817 77.27856445 63.51586914 C77.32196985 61.97066961 77.36364071 60.42542036 77.40356445 58.88012695 C77.46113199 56.66342154 77.52486424 54.4469677 77.58984375 52.23046875 C77.60655624 51.5356691 77.62326874 50.84086945 77.64048767 50.12501526 C77.79237829 45.24668421 77.79237829 45.24668421 78.90625 44.1328125 C80.60183726 44.03349097 82.30150747 44.00201243 84 44 C85.02996094 43.99871094 86.05992187 43.99742187 87.12109375 43.99609375 C88.74724609 44.00189453 88.74724609 44.00189453 90.40625 44.0078125 C91.49035156 44.00394531 92.57445312 44.00007813 93.69140625 43.99609375 C94.72136719 43.99738281 95.75132812 43.99867188 96.8125 44 C98.24045898 44.00169189 98.24045898 44.00169189 99.69726562 44.00341797 C101.90625 44.1328125 101.90625 44.1328125 102.90625 45.1328125 C102.99325342 46.76754132 103.01326063 48.40595305 103.00390625 50.04296875 C103.00068359 51.03232422 102.99746094 52.02167969 102.99414062 53.04101562 C102.98576172 54.08193359 102.97738281 55.12285156 102.96875 56.1953125 C102.96423828 57.24009766 102.95972656 58.28488281 102.95507812 59.36132812 C102.94324913 61.9518791 102.92676689 64.54231809 102.90625 67.1328125 C105.54625 65.8128125 108.18625 64.4928125 110.90625 63.1328125 C110.90625 56.8628125 110.90625 50.5928125 110.90625 44.1328125 C114.20625 44.1328125 117.50625 44.1328125 120.90625 44.1328125 C120.90625 36.2128125 120.90625 28.2928125 120.90625 20.1328125 C128.82625 20.1328125 136.74625 20.1328125 144.90625 20.1328125 C144.90625 28.0528125 144.90625 35.9728125 144.90625 44.1328125 C148.0928125 44.101875 148.0928125 44.101875 151.34375 44.0703125 C153.53124611 44.04907467 155.71985547 44.06022304 157.90625 44.1328125 C159.71812842 45.94469092 159.03859462 48.4025876 159.04296875 50.81054688 C159.03910156 51.55626953 159.03523438 52.30199219 159.03125 53.0703125 C159.03511719 53.81216797 159.03898437 54.55402344 159.04296875 55.31835938 C159.03288501 60.87954248 159.03288501 60.87954248 157.90625 63.1328125 C155.25764573 63.72636864 152.61427678 63.87490519 149.90625 64.1328125 C150.6075 64.58269531 151.30875 65.03257812 152.03125 65.49609375 C161.80420499 72.12205101 169.47281578 80.62343482 172.45703125 92.28515625 C174.52605242 105.40095132 173.72510652 118.0160298 165.96875 129.0078125 C163.48746798 132.28750319 160.97188784 135.38077853 157.90625 138.1328125 C157.24625 138.1328125 156.58625 138.1328125 155.90625 138.1328125 C155.90625 138.7928125 155.90625 139.4528125 155.90625 140.1328125 C154.36726439 140.92967856 152.82491216 141.72004391 151.28125 142.5078125 C150.42273438 142.94867188 149.56421875 143.38953125 148.6796875 143.84375 C142.00758252 146.94486922 136.43292014 147.51882985 129.15625 147.5078125 C128.07496826 147.50692627 126.99368652 147.50604004 125.87963867 147.50512695 C112.91728776 147.32584007 100.15615332 145.58483134 87.31872559 143.93031311 C79.98661939 142.99466163 72.63938673 142.27260445 65.28125 141.5703125 C55.50736025 140.6250682 45.77145621 139.52451899 36.03417969 138.25976562 C25.33437762 136.89139455 14.60200181 135.87033668 3.8671875 134.8203125 C-1.70765047 134.27437733 -7.27739519 133.69659794 -12.84375 133.0703125 C-13.53525146 132.99304932 -14.22675293 132.91578613 -14.93920898 132.83618164 C-18.55911696 132.42860234 -22.17647438 132.00322378 -25.79296875 131.56640625 C-29.58621626 131.11141894 -33.38180401 130.70375499 -37.18408203 130.33203125 C-38.78172857 130.16536293 -40.37436999 129.95160913 -41.96484375 129.7265625 C-51.85611595 128.8624264 -61.25824867 134.26649865 -70.09375 138.1328125 C-71.46678028 138.72161141 -72.84042307 139.30898527 -74.21484375 139.89453125 C-80.314559 142.48647871 -80.314559 142.48647871 -86.375 145.16796875 C-92.4733045 147.76942801 -98.80287673 148.39314694 -105.03125 146.0078125 C-108.69133184 142.68046538 -109.94589398 139.51280198 -110.46875 134.6328125 C-110.04985841 130.72315766 -109.25499424 128.41194169 -107.09375 125.1328125 C-102.92409645 121.8588623 -99.13957799 121.7329807 -94.03125 121.8828125 C-92.97067383 121.89054687 -92.97067383 121.89054687 -91.88867188 121.8984375 C-88.46118115 121.94993032 -85.3913083 122.24267406 -82.09375 123.1328125 C-79.92960687 123.32955278 -77.76235016 123.4935446 -75.59375 123.6328125 C-71.94541052 123.86710953 -68.62029094 124.20792724 -65.09375 125.1328125 C-48.6530467 128.34947184 -36.04466465 122.66712353 -21.09375 116.1328125 C-18.89607887 115.18089378 -16.69563566 114.2353439 -14.4921875 113.296875 C-13.52716309 112.88131348 -12.56213867 112.46575195 -11.56787109 112.03759766 C-9.09375 111.1328125 -9.09375 111.1328125 -6.09375 111.1328125 C-6.09467179 110.56682374 -6.09559359 110.00083498 -6.09654331 109.41769505 C-6.11859965 95.66445615 -6.13509833 81.91122034 -6.14556217 68.15796757 C-6.15079174 61.5070772 -6.15789072 54.85620464 -6.16918945 48.20532227 C-6.18001571 41.79278373 -6.18602628 35.38025746 -6.18862724 28.96771049 C-6.19048197 26.51516972 -6.19410347 24.06262965 -6.19948006 21.61009407 C-6.20668702 18.18804573 -6.20774109 14.76604879 -6.20727539 11.34399414 C-6.21087067 10.31900818 -6.21446594 9.29402222 -6.21817017 8.23797607 C-6.2167955 7.31104446 -6.21542084 6.38411285 -6.21400452 5.42909241 C-6.21492631 4.61883637 -6.2158481 3.80858034 -6.21679783 2.9737711 C-5.95830964 -0.89355477 -3.25878009 0.00386111 0 0 Z M20.2878418 66.79394531 C18.36194754 70.05425048 18.56694671 72.5361451 18.61328125 76.3046875 C18.61752609 76.9871051 18.62177094 77.66952271 18.62614441 78.37261963 C18.64288028 80.54309254 18.68052041 82.71262229 18.71875 84.8828125 C18.73380354 86.35805947 18.74749078 87.83332105 18.75976562 89.30859375 C18.79276623 92.91697094 18.84451233 96.5247996 18.90625 100.1328125 C23.10187647 99.34403293 26.94774354 98.14459504 30.96875 96.6953125 C32.17660156 96.26347656 33.38445312 95.83164062 34.62890625 95.38671875 C37.16661372 94.41579611 39.49802668 93.36918446 41.90625 92.1328125 C42.02334643 88.61226336 42.0937969 85.09222138 42.15625 81.5703125 C42.18976563 80.57966797 42.22328125 79.58902344 42.2578125 78.56835938 C42.34247845 72.19724637 41.81564778 68.25862362 37.90625 63.1328125 C30.95189305 60.81469352 25.43595819 61.50992299 20.2878418 66.79394531 Z " fill="#BC39AE" transform="translate(299.09375,173.8671875)"/>
<path d="M0 0 C8.25 0 16.5 0 25 0 C25.7425 1.959375 26.485 3.91875 27.25 5.9375 C28.74738238 9.83658277 30.26682404 13.69979861 32 17.5 C33.57131373 20.95563816 34.9641559 24.45126374 36.3125 28 C39.38003395 36.06752049 42.69172511 44.02910313 46 52 C50.1312895 61.95385318 54.16492363 71.92728471 58 82 C59.24457398 85.25210783 60.4959493 88.50153619 61.75 91.75 C62.05615234 92.54978271 62.36230469 93.34956543 62.67773438 94.17358398 C63.87877082 97.86041127 63.87877082 97.86041127 66 101 C66 102.65 66 104.3 66 106 C57.42 106 48.84 106 40 106 C35 95 35 95 32 86 C12.695 85.505 12.695 85.505 -7 85 C-7.495 86.98 -7.495 86.98 -8 89 C-8.45350802 90.37535764 -8.92438418 91.74507897 -9.41015625 93.109375 C-9.6512915 93.78967773 -9.89242676 94.46998047 -10.14086914 95.17089844 C-10.59707642 96.44755371 -10.59707642 96.44755371 -11.0625 97.75 C-12.031875 100.4725 -13.00125 103.195 -14 106 C-22.91 106 -31.82 106 -41 106 C-40.14814769 101.74073845 -38.98008162 97.96079445 -37.4375 93.9375 C-37.17573975 93.2470459 -36.91397949 92.5565918 -36.64428711 91.84521484 C-34.18376765 85.39592074 -31.61900871 78.98841063 -29.03955078 72.5859375 C-27.36949353 68.43827027 -25.71555658 64.28615447 -24.109375 60.11328125 C-23.65485962 58.93258057 -23.65485962 58.93258057 -23.19116211 57.72802734 C-22.63178598 56.26982594 -22.07501849 54.8106192 -21.52172852 53.35009766 C-20.02572613 49.45182033 -18.39840909 45.64915258 -16.64453125 41.859375 C-13.62140926 35.28030933 -10.99734464 28.55927405 -8.375 21.8125 C-7.65957031 19.98428711 -7.65957031 19.98428711 -6.9296875 18.11914062 C-4.57592838 12.09417109 -2.27143639 6.0571637 0 0 Z M12 35 C11.61328125 36.03898437 11.2265625 37.07796875 10.828125 38.1484375 C10.30234608 39.55738975 9.77628552 40.96623691 9.25 42.375 C8.97849121 43.10219238 8.70698242 43.82938477 8.42724609 44.57861328 C6.58941254 49.48131414 4.67919531 54.34664539 2.6640625 59.1796875 C1.88576197 60.99020367 1.88576197 60.99020367 2 63 C8.93 63 15.86 63 23 63 C22.1138191 58.56909551 20.89228006 54.44588981 19.4375 50.1875 C19.20353516 49.49462891 18.96957031 48.80175781 18.72851562 48.08789062 C18.15508324 46.39099886 17.57791831 44.69536922 17 43 C16.34 43 15.68 43 15 43 C14.87625 42.236875 14.7525 41.47375 14.625 40.6875 C14.11897208 37.79732864 14.11897208 37.79732864 12 35 Z " fill="#F4F4F4" transform="translate(78,179)"/>
<path d="M0 0 C7.59 0 15.18 0 23 0 C24.58476052 1.58476052 24.16427317 3.22892001 24.20532227 5.42797852 C24.22526749 6.36887833 24.24521271 7.30977814 24.26576233 8.27919006 C24.28247482 9.30209641 24.29918732 10.32500275 24.31640625 11.37890625 C24.33718735 12.42070541 24.35796844 13.46250458 24.37937927 14.53587341 C24.44499057 17.87801247 24.50381331 21.22023285 24.5625 24.5625 C24.60567422 26.82227418 24.64928814 29.08204001 24.69335938 31.34179688 C24.80068367 36.89444421 24.90242812 42.44717321 25 48 C25.92167969 47.36578125 26.84335937 46.7315625 27.79296875 46.078125 C33.80974274 42.17931408 39.97526019 41.24312568 47 42 C54.64610485 43.69325505 62.96577673 46.82070172 67.60327148 53.35083008 C70.90356477 58.77560597 70.63412158 63.96157879 70.48828125 70.15625 C70.48120651 71.29912476 70.47413177 72.44199951 70.46684265 73.61950684 C70.43899621 77.24702159 70.37627166 80.87295677 70.3125 84.5 C70.28740472 86.96872761 70.26459372 89.43747957 70.24414062 91.90625 C70.18920077 97.93810272 70.10299207 103.96878414 70 110 C62.74 110 55.48 110 48 110 C47.97421875 107.25429688 47.9484375 104.50859375 47.921875 101.6796875 C47.88341818 99.00868656 47.83826975 96.3378763 47.79248047 93.66699219 C47.76432502 91.81649947 47.74308354 89.96588771 47.72900391 88.11523438 C47.7074988 85.4486012 47.6608114 82.78339116 47.609375 80.1171875 C47.60814636 79.29507782 47.60691772 78.47296814 47.60565186 77.62594604 C47.46639452 72.11489744 46.35066703 69.36387272 43 65 C43 64.34 43 63.68 43 63 C35.87101255 62.58456752 35.87101255 62.58456752 29 64.125 C25.38419309 67.51481898 23.86830526 71.28184401 23.56762695 76.16943359 C23.52659764 77.74545612 23.50086973 79.32193126 23.48828125 80.8984375 C23.47033005 81.73339752 23.45237885 82.56835754 23.43388367 83.42861938 C23.38000078 86.07736261 23.34595639 88.72592794 23.3125 91.375 C23.27930741 93.17841005 23.24481596 94.9817967 23.20898438 96.78515625 C23.12185755 101.19012663 23.06160327 105.59430399 23 110 C15.41 110 7.82 110 0 110 C0 73.7 0 37.4 0 0 Z " fill="#F8F7F7" transform="translate(294,174)"/>
<path d="M0 0 C0.7425 0.61875 1.485 1.2375 2.25 1.875 C2.25 2.535 2.25 3.195 2.25 3.875 C2.91 3.875 3.57 3.875 4.25 3.875 C6.98761765 9.11218159 8.37871116 12.93507072 8.36352539 18.82714844 C8.36341209 20.29822052 8.36341209 20.29822052 8.36329651 21.79901123 C8.35813522 22.85018127 8.35297394 23.90135132 8.34765625 24.984375 C8.3462413 26.06632141 8.34482635 27.14826782 8.34336853 28.26300049 C8.33777318 31.7170285 8.3252215 35.17099159 8.3125 38.625 C8.3074844 40.96744698 8.3029216 43.30989498 8.29882812 45.65234375 C8.28865638 51.39327428 8.26907992 57.13406449 8.25 62.875 C0.33 62.875 -7.59 62.875 -15.75 62.875 C-15.78738281 59.97332031 -15.82476562 57.07164062 -15.86328125 54.08203125 C-15.90951934 51.26546782 -15.96074471 48.44903608 -16.01245117 45.63256836 C-16.04566354 43.67822298 -16.07370695 41.72378253 -16.09643555 39.76928711 C-16.13004933 36.95645718 -16.18236854 34.14449553 -16.23828125 31.33203125 C-16.24467117 30.46101273 -16.2510611 29.5899942 -16.25764465 28.69258118 C-16.37427359 23.85828058 -16.83594052 20.91242384 -19.75 16.875 C-19.75 16.215 -19.75 15.555 -19.75 14.875 C-27.66883538 14.2231505 -27.66883538 14.2231505 -34.9375 16.75 C-37.4122128 19.65138742 -37.87728586 21.23406814 -37.95532227 24.95751953 C-37.97526749 25.79824005 -37.99521271 26.63896057 -38.01576233 27.50515747 C-38.04083107 28.86772171 -38.04083107 28.86772171 -38.06640625 30.2578125 C-38.08718735 31.18721649 -38.10796844 32.11662048 -38.12937927 33.07418823 C-38.19487646 36.0493821 -38.25376052 39.02466577 -38.3125 42 C-38.35568506 44.01433228 -38.39929934 46.02865541 -38.44335938 48.04296875 C-38.55055803 52.98688663 -38.65182501 57.93089503 -38.75 62.875 C-42.72915159 62.90386984 -46.70827653 62.92175406 -50.6875 62.9375 C-52.39196289 62.95006836 -52.39196289 62.95006836 -54.13085938 62.96289062 C-55.21044922 62.96611328 -56.29003906 62.96933594 -57.40234375 62.97265625 C-58.90269165 62.98051147 -58.90269165 62.98051147 -60.43334961 62.98852539 C-62.75 62.875 -62.75 62.875 -63.75 61.875 C-63.84413687 59.81943339 -63.86742998 57.76059819 -63.86352539 55.70288086 C-63.86367142 55.05899918 -63.86381744 54.41511749 -63.8639679 53.75172424 C-63.86326885 51.61439697 -63.85547691 49.47715587 -63.84765625 47.33984375 C-63.84579204 45.86153715 -63.84436815 44.38322993 -63.84336853 42.90492249 C-63.83954359 39.00701198 -63.82971352 35.10913851 -63.81866455 31.21124268 C-63.80844992 27.23653667 -63.8038708 23.26182471 -63.79882812 19.28710938 C-63.78809122 11.48305404 -63.77049462 3.67903692 -63.75 -4.125 C-55.83 -4.125 -47.91 -4.125 -39.75 -4.125 C-39.09 -2.805 -38.43 -1.485 -37.75 -0.125 C-36.76 -0.785 -35.77 -1.445 -34.75 -2.125 C-33.76 -2.125 -32.77 -2.125 -31.75 -2.125 C-31.75 -2.785 -31.75 -3.445 -31.75 -4.125 C-20.6772834 -7.89443544 -10.00427218 -6.2911026 0 0 Z " fill="#F6F6F6" transform="translate(210.75,222.125)"/>
<path d="M0 0 C-0.62816498 3.94949704 -1.8645529 7.19892028 -3.5625 10.8125 C-4.01753906 11.78832031 -4.47257812 12.76414063 -4.94140625 13.76953125 C-5.46541016 14.87361328 -5.46541016 14.87361328 -6 16 C-9.46941546 15.54177532 -12.67395049 15.10868317 -16 14 C-17.89470816 13.9314505 -19.7916834 13.91519628 -21.6875 13.9375 C-22.68136719 13.94652344 -23.67523438 13.95554688 -24.69921875 13.96484375 C-25.45847656 13.97644531 -26.21773437 13.98804688 -27 14 C-26.8557376 15.95285481 -26.8557376 15.95285481 -26 18 C-23.93335692 19.25707471 -23.93335692 19.25707471 -21.375 20.0625 C-20.47265625 20.39121094 -19.5703125 20.71992188 -18.640625 21.05859375 C-17.76921875 21.36925781 -16.8978125 21.67992187 -16 22 C-12.2642679 23.52378546 -8.5810618 25.13784786 -5 27 C-5 27.66 -5 28.32 -5 29 C-4.01 29.33 -3.02 29.66 -2 30 C1.6125739 34.6274776 2.63988715 39.70510759 2.390625 45.46484375 C1.74718052 49.64079843 0.4286565 53.52192403 -2 57 C-4.140625 58.25 -4.140625 58.25 -6 59 C-6 59.66 -6 60.32 -6 61 C-7.72744016 61.65043719 -9.4570369 62.29514844 -11.1875 62.9375 C-12.63189453 63.47697266 -12.63189453 63.47697266 -14.10546875 64.02734375 C-25.53481346 67.86797376 -38.11669026 67.09951489 -49 62 C-51.53968925 60.47532261 -53.69960535 58.88214108 -56 57 C-54.5143761 52.99624358 -52.63136615 49.38578153 -50.5 45.6875 C-49.58734375 44.08455078 -49.58734375 44.08455078 -48.65625 42.44921875 C-48.1096875 41.64097656 -47.563125 40.83273437 -47 40 C-46.34 40 -45.68 40 -45 40 C-45 40.66 -45 41.32 -45 42 C-44.154375 42.268125 -43.30875 42.53625 -42.4375 42.8125 C-39 44 -39 44 -35.5625 45.6875 C-31.51147922 47.17998134 -29.16121303 46.93414986 -25 46 C-24.88508882 43.59944362 -24.88508882 43.59944362 -26 41 C-28.64316382 39.53655336 -31.01434929 38.43256877 -33.8125 37.375 C-43.18253856 33.67695812 -43.18253856 33.67695812 -46 31 C-46 30.34 -46 29.68 -46 29 C-46.66 29 -47.32 29 -48 29 C-52.39478956 23.31578563 -51.71666178 16.84452259 -51 10 C-48.51868006 4.5601832 -44.27616676 0.35197978 -38.71875 -1.94140625 C-36.49202949 -2.6896711 -34.26060095 -3.36272583 -32 -4 C-21.35574442 -7.54808519 -9.96455824 -4.09258642 0 0 Z " fill="#F0EFEF" transform="translate(282,221)"/>
<path d="M0 0 C7.92 0 15.84 0 24 0 C24.495 11.88 24.495 11.88 25 24 C28.63 24.33 32.26 24.66 36 25 C36 30.61 36 36.22 36 42 C31.71 42 27.42 42 23 42 C23.11358571 46.27142048 23.24034641 50.54173682 23.375 54.8125 C23.4059375 56.02744141 23.436875 57.24238281 23.46875 58.49414062 C23.52675781 60.23920898 23.52675781 60.23920898 23.5859375 62.01953125 C23.6173584 63.09307861 23.6487793 64.16662598 23.68115234 65.27270508 C23.81592307 68.2160765 23.81592307 68.2160765 26 71 C28.64 70.67 31.28 70.34 34 70 C34.83857688 72.60258324 35.67103344 75.20685647 36.5 77.8125 C36.73847656 78.55048828 36.97695313 79.28847656 37.22265625 80.04882812 C38.19940136 83.13255196 39 85.74495809 39 89 C30.86569137 92.36592081 22.09698653 93.7473644 13.46484375 91.2734375 C7.34382766 88.45891422 4.212518 84.13631692 1.62850952 77.9670105 C0.56724246 74.64562336 0.63165459 71.32346015 0.70703125 67.87890625 C0.71127609 67.13414536 0.71552094 66.38938446 0.71989441 65.62205505 C0.73654276 63.26848527 0.77416625 60.91580621 0.8125 58.5625 C0.82756485 56.95639267 0.84125009 55.35027177 0.85351562 53.74414062 C0.88640048 49.82908953 0.93808374 45.91469521 1 42 C-2.3 42 -5.6 42 -9 42 C-9 36.39 -9 30.78 -9 25 C-5.7 25 -2.4 25 1 25 C0.89171875 23.80117187 0.89171875 23.80117187 0.78125 22.578125 C0.6884375 21.47984375 0.595625 20.3815625 0.5 19.25 C0.4071875 18.18265625 0.314375 17.1153125 0.21875 16.015625 C-0.07166205 10.68448959 0 5.33903961 0 0 Z " fill="#FAF8FA" transform="translate(420,194)"/>
<path d="M0 0 C7.59 0 15.18 0 23 0 C23 21.78 23 43.56 23 66 C15.41 66 7.82 66 0 66 C0 44.22 0 22.44 0 0 Z " fill="#FBF8FA" transform="translate(378,218)"/>
<path d="M0 0 C4.2710989 0.1386402 8.54179892 0.28713901 12.8125 0.4375 C14.02744141 0.47681641 15.24238281 0.51613281 16.49414062 0.55664062 C17.65751953 0.59853516 18.82089844 0.64042969 20.01953125 0.68359375 C21.09307861 0.72025146 22.16662598 0.75690918 23.27270508 0.79467773 C26 1 26 1 29 2 C30.52946156 2.13510099 32.06331348 2.22382859 33.59765625 2.28125 C34.48130859 2.31863281 35.36496094 2.35601562 36.27539062 2.39453125 C38.13736421 2.46499136 39.99934341 2.53530324 41.86132812 2.60546875 C43.18487305 2.66154297 43.18487305 2.66154297 44.53515625 2.71875 C45.74764038 2.76418945 45.74764038 2.76418945 46.98461914 2.81054688 C49 3 49 3 51 4 C50 7 50 7 47.5065918 8.27099609 C46.41515869 8.68430176 45.32372559 9.09760742 44.19921875 9.5234375 C42.99330078 9.9875 41.78738281 10.4515625 40.54492188 10.9296875 C39.25928183 11.41190447 37.97347363 11.89367334 36.6875 12.375 C34.21178376 13.31911808 31.73651908 14.26442116 29.26171875 15.2109375 C28.04605225 15.67145508 26.83038574 16.13197266 25.57788086 16.60644531 C21.2127688 18.30661997 16.92103671 20.15492465 12.63964844 22.05517578 C7.31312034 23.96172995 2.31396333 23.88619872 -2.9375 21.875 C-6.65024877 18.49977385 -7.88475996 15.33678443 -8.3125 10.375 C-7.82986767 5.16257089 -7.82986767 5.16257089 -6 3 C-2.875 2.25 -2.875 2.25 0 2 C0 1.34 0 0.68 0 0 Z " fill="#B523D9" transform="translate(197,298)"/>
<path d="M0 0 C0.33 0 0.66 0 1 0 C1 4.29 1 8.58 1 13 C-2.3 13 -5.6 13 -9 13 C-9 18.61 -9 24.22 -9 30 C-5.7 30 -2.4 30 1 30 C1.00410889 30.97759277 1.00821777 31.95518555 1.01245117 32.96240234 C1.03443669 36.63446791 1.0889214 40.30549116 1.15258789 43.97705078 C1.17560047 45.55767732 1.19012382 47.13845356 1.19555664 48.71923828 C1.20978615 62.11498853 1.20978615 62.11498853 7 74 C12.74819117 79.3656432 18.92690114 79.20668101 26.390625 79.16796875 C30.83525946 78.9611297 34.71991746 78.18071242 39 77 C38.18957506 74.37434281 37.37675813 71.74946834 36.5625 69.125 C36.33240234 68.37863281 36.10230469 67.63226563 35.86523438 66.86328125 C34.64620353 62.84908399 34.64620353 62.84908399 33 59 C29.535 59.495 29.535 59.495 26 60 C22.93807166 56.65200915 22.64117309 54.40022965 22.70703125 49.921875 C22.7215332 48.18164062 22.7215332 48.18164062 22.73632812 46.40625 C22.76146484 45.1996875 22.78660156 43.993125 22.8125 42.75 C22.82603516 41.52796875 22.83957031 40.3059375 22.85351562 39.046875 C22.88885719 36.03106179 22.9426635 33.01547523 23 30 C27.29 30 31.58 30 36 30 C36 24.39 36 18.78 36 13 C32.37 13 28.74 13 25 13 C25 12.67 25 12.34 25 12 C26.97909398 11.97313447 28.95828971 11.95366625 30.9375 11.9375 C32.03964844 11.92589844 33.14179688 11.91429687 34.27734375 11.90234375 C37 12 37 12 38 13 C38.10002455 15.65653443 38.13877463 18.28129272 38.125 20.9375 C38.13080078 22.0502832 38.13080078 22.0502832 38.13671875 23.18554688 C38.12663501 28.74672998 38.12663501 28.74672998 37 31 C34.35139573 31.59355614 31.70802678 31.74209269 29 32 C29.70125 32.44988281 30.4025 32.89976562 31.125 33.36328125 C40.93324119 40.01316216 48.4631018 48.46901438 51.5625 60.11328125 C52.18002124 64.18781874 52.10471114 68.19853693 52.0625 72.3125 C52.05798828 73.14845703 52.05347656 73.98441406 52.04882812 74.84570312 C52.03710548 76.89716649 52.01917203 78.94859273 52 81 C51.67 81 51.34 81 51 81 C50.93941406 80.00097656 50.87882812 79.00195312 50.81640625 77.97265625 C50.73261719 76.68230469 50.64882813 75.39195312 50.5625 74.0625 C50.48128906 72.77472656 50.40007812 71.48695313 50.31640625 70.16015625 C50.35080812 67.13976043 50.35080812 67.13976043 49 66 C48.75820596 63.71191198 48.61663401 61.42534185 48.4765625 59.12890625 C48.17126245 56.61527629 48.17126245 56.61527629 45 55 C44.3125 52.375 44.3125 52.375 44 50 C43.01 49.67 42.02 49.34 41 49 C40.67 49.99 40.34 50.98 40 52 C39.34 52 38.68 52 38 52 C38 51.34 38 50.68 38 50 C37.34 50 36.68 50 36 50 C36.52268466 47.23723823 37.10869587 44.6739124 38 42 C37.0925 41.71125 36.185 41.4225 35.25 41.125 C32.67797092 40.23468224 30.38653234 39.28505587 28 38 C28 36.68 28 35.36 28 34 C27.01 34.495 27.01 34.495 26 35 C25.59939544 37.41567564 25.33975551 39.69093417 25.1875 42.125 C25.14181885 42.80699463 25.0961377 43.48898926 25.04907227 44.19165039 C24.80676042 49.34062298 25.34010549 52.63777301 28 57 C30.97 56.505 30.97 56.505 34 56 C34.47179687 56.84884766 34.47179687 56.84884766 34.953125 57.71484375 C35.38109375 58.44832031 35.8090625 59.18179688 36.25 59.9375 C36.66765625 60.66839844 37.0853125 61.39929688 37.515625 62.15234375 C39.25593617 64.31857318 40.29561004 64.63594751 43 65 C43 68.33333333 43 71.66666667 43 75 C42.34 75 41.68 75 41 75 C41 76.32 41 77.64 41 79 C41.99 79.33 42.98 79.66 44 80 C40.90509624 80.91700852 38.21289068 81 35 81 C34.30390625 81.17144531 33.6078125 81.34289062 32.890625 81.51953125 C28.93477425 82.17705779 25.17747629 81.9280188 21.1875 81.6875 C20.03411133 81.63432617 20.03411133 81.63432617 18.85742188 81.58007812 C13.6778284 81.28722347 8.99711301 80.39600078 4 79 C4 77.68 4 76.36 4 75 C3.34 74.67 2.68 74.34 2 74 C2 72.68 2 71.36 2 70 C1.01 69.67 0.02 69.34 -1 69 C-2.13034513 61.23829679 -1.9242661 53.75913255 -1.5625 45.9375 C-1.51029297 44.69033203 -1.45808594 43.44316406 -1.40429688 42.15820312 C-1.27562425 39.10515269 -1.14070861 36.0525154 -1 33 C-1.76699219 33.17402344 -2.53398437 33.34804687 -3.32421875 33.52734375 C-6.21417737 34.03783279 -8.18114044 33.7248496 -11 33 C-10.67 32.34 -10.34 31.68 -10 31 C-9.91657841 29.55151418 -9.89267139 28.09929131 -9.90234375 26.6484375 C-9.90556641 25.79765625 -9.90878906 24.946875 -9.91210938 24.0703125 C-9.92048828 23.18085938 -9.92886719 22.29140625 -9.9375 21.375 C-9.94426758 20.02921875 -9.94426758 20.02921875 -9.95117188 18.65625 C-9.96297389 16.43747169 -9.98090961 14.21872757 -10 12 C-6.7 12 -3.4 12 0 12 C0 8.04 0 4.08 0 0 Z " fill="#BA5E93" transform="translate(420,206)"/>
<path d="M0 0 C4.03520598 2.33617189 6.68615711 5.06485617 8.015625 9.5234375 C8.85288648 14.85642909 8.30736402 18.70154485 5.375 23.375 C0.84827491 26.90584557 -2.74524024 28.03919638 -8.48046875 27.765625 C-12.69497373 26.9979556 -15.42381433 24.67365659 -18.26171875 21.60546875 C-20.8920444 17.30198466 -20.21766507 12.23618543 -19.625 7.375 C-15.5714859 -0.26431503 -8.00678019 -1.90637624 0 0 Z " fill="#EDECEC" transform="translate(395.625,178.625)"/>
<path d="M0 0 C7.92 0 15.84 0 24 0 C24.66 1.32 25.32 2.64 26 4 C26.66 4 27.32 4 28 4 C28 4.66 28 5.32 28 6 C26.35 6.66 24.7 7.32 23 8 C23 5.69 23 3.38 23 1 C16.07 1 9.14 1 2 1 C2 22.45 2 43.9 2 66 C9.26 66 16.52 66 24 66 C24 53.13 24 40.26 24 27 C24.33 27 24.66 27 25 27 C25 40.2 25 53.4 25 67 C21.060625 67.020625 17.12125 67.04125 13.0625 67.0625 C11.19670288 67.07615601 11.19670288 67.07615601 9.29321289 67.09008789 C8.3211792 67.09258545 7.34914551 67.09508301 6.34765625 67.09765625 C4.84730835 67.10551147 4.84730835 67.10551147 3.31665039 67.11352539 C1 67 1 67 0 66 C-0.09413687 63.94443339 -0.11742998 61.88559819 -0.11352539 59.82788086 C-0.11367142 59.18399918 -0.11381744 58.54011749 -0.1139679 57.87672424 C-0.11326885 55.73939697 -0.10547691 53.60215587 -0.09765625 51.46484375 C-0.09579204 49.98653715 -0.09436815 48.50822993 -0.09336853 47.02992249 C-0.08954359 43.13201198 -0.07971352 39.23413851 -0.06866455 35.33624268 C-0.05844992 31.36153667 -0.0538708 27.38682471 -0.04882812 23.41210938 C-0.03809122 15.60805404 -0.02049462 7.80403692 0 0 Z " fill="#787677" transform="translate(147,218)"/>
<path d="M0 0 C1.97909398 -0.02686553 3.95828971 -0.04633375 5.9375 -0.0625 C7.03964844 -0.07410156 8.14179688 -0.08570313 9.27734375 -0.09765625 C12 0 12 0 13 1 C13.10002455 3.65653443 13.13877463 6.28129272 13.125 8.9375 C13.12886719 9.67935547 13.13273437 10.42121094 13.13671875 11.18554688 C13.12663501 16.74672998 13.12663501 16.74672998 12 19 C9.35139573 19.59355614 6.70802678 19.74209269 4 20 C5.051875 20.67482422 5.051875 20.67482422 6.125 21.36328125 C15.93324119 28.01316216 23.4631018 36.46901438 26.5625 48.11328125 C27.18002124 52.18781874 27.10471114 56.19853693 27.0625 60.3125 C27.05798828 61.14845703 27.05347656 61.98441406 27.04882812 62.84570312 C27.03710548 64.89716649 27.01917203 66.94859273 27 69 C26.67 69 26.34 69 26 69 C25.93941406 68.00097656 25.87882812 67.00195312 25.81640625 65.97265625 C25.73261719 64.68230469 25.64882813 63.39195312 25.5625 62.0625 C25.48128906 60.77472656 25.40007812 59.48695313 25.31640625 58.16015625 C25.35080812 55.13976043 25.35080812 55.13976043 24 54 C23.75820596 51.71191198 23.61663401 49.42534185 23.4765625 47.12890625 C23.17126245 44.61527629 23.17126245 44.61527629 20 43 C19.3125 40.375 19.3125 40.375 19 38 C17.515 37.505 17.515 37.505 16 37 C15.67 37.99 15.34 38.98 15 40 C14.34 40 13.68 40 13 40 C13 39.34 13 38.68 13 38 C12.34 38 11.68 38 11 38 C11.52268466 35.23723823 12.10869587 32.6739124 13 30 C12.0925 29.71125 11.185 29.4225 10.25 29.125 C7.67797092 28.23468224 5.38653234 27.28505587 3 26 C3 24.68 3 23.36 3 22 C1.68 21.67 0.36 21.34 -1 21 C-0.505 19.515 -0.505 19.515 0 18 C3.63 18 7.26 18 11 18 C11 12.39 11 6.78 11 1 C7.37 1 3.74 1 0 1 C0 0.67 0 0.34 0 0 Z " fill="#B2487A" transform="translate(445,218)"/>
<path d="M0 0 C1.06057617 0.00773437 1.06057617 0.00773437 2.14257812 0.015625 C5.57006885 0.06711782 8.6399417 0.35986156 11.9375 1.25 C14.10164313 1.44674028 16.26889984 1.6107321 18.4375 1.75 C24.49912792 2.13927886 24.49912792 2.13927886 26.88232422 2.74121094 C36.50355162 5.12308762 47.8305071 5.30009483 56.9375 1.25 C56.6075 1.91 56.2775 2.57 55.9375 3.25 C55.2775 3.25 54.6175 3.25 53.9375 3.25 C53.9375 3.91 53.9375 4.57 53.9375 5.25 C61.87242964 6.64948245 69.68430045 7.55229815 77.73046875 7.82006836 C82.72625804 8.03875804 82.72625804 8.03875804 84.9375 10.25 C77.03774463 10.5288149 69.43734856 9.92274314 61.61425781 8.96582031 C55.36968587 8.22944465 49.22597351 8.02805388 42.9375 8.25 C42.9375 7.59 42.9375 6.93 42.9375 6.25 C42.28676514 6.22494385 41.63603027 6.1998877 40.96557617 6.17407227 C38.01851954 6.05806298 35.0717787 5.93535885 32.125 5.8125 C31.10083984 5.77318359 30.07667969 5.73386719 29.02148438 5.69335938 C28.03857422 5.65146484 27.05566406 5.60957031 26.04296875 5.56640625 C25.13699951 5.52974854 24.23103027 5.49309082 23.29760742 5.45532227 C20.9375 5.25 20.9375 5.25 17.9375 4.25 C16.45499712 4.11505311 14.9679908 4.02622696 13.48046875 3.96875 C12.18206055 3.91267578 12.18206055 3.91267578 10.85742188 3.85546875 C9.95572266 3.82066406 9.05402344 3.78585937 8.125 3.75 C2.65298435 3.5360327 -2.67443006 3.31870809 -8.0625 2.25 C-8.0625 2.91 -8.0625 3.57 -8.0625 4.25 C-9.7125 4.58 -11.3625 4.91 -13.0625 5.25 C-13.0625 4.59 -13.0625 3.93 -13.0625 3.25 C-8.94434123 -0.07031588 -5.07510995 -0.14885749 0 0 Z " fill="#852497" transform="translate(205.0625,295.75)"/>
<path d="M0 0 C0.33 0 0.66 0 1 0 C1 4.29 1 8.58 1 13 C-2.3 13 -5.6 13 -9 13 C-9 18.61 -9 24.22 -9 30 C-5.7 30 -2.4 30 1 30 C1.33 43.2 1.66 56.4 2 70 C1.01 69.67 0.02 69.34 -1 69 C-2.13034513 61.23829679 -1.9242661 53.75913255 -1.5625 45.9375 C-1.51029297 44.69033203 -1.45808594 43.44316406 -1.40429688 42.15820312 C-1.27562425 39.10515269 -1.14070861 36.0525154 -1 33 C-1.76699219 33.17402344 -2.53398437 33.34804687 -3.32421875 33.52734375 C-6.21417737 34.03783279 -8.18114044 33.7248496 -11 33 C-10.67 32.34 -10.34 31.68 -10 31 C-9.91657841 29.55151418 -9.89267139 28.09929131 -9.90234375 26.6484375 C-9.90556641 25.79765625 -9.90878906 24.946875 -9.91210938 24.0703125 C-9.92048828 23.18085938 -9.92886719 22.29140625 -9.9375 21.375 C-9.94426758 20.02921875 -9.94426758 20.02921875 -9.95117188 18.65625 C-9.96297389 16.43747169 -9.98090961 14.21872757 -10 12 C-6.7 12 -3.4 12 0 12 C0 8.04 0 4.08 0 0 Z " fill="#B5759F" transform="translate(420,206)"/>
<path d="M0 0 C0.33 0 0.66 0 1 0 C1 7.26 1 14.52 1 22 C3.31 21.34 5.62 20.68 8 20 C6.6875 23.4375 6.6875 23.4375 5 27 C4.01 27.33 3.02 27.66 2 28 C1.97087652 31.72915017 1.95315963 35.4582709 1.9375 39.1875 C1.92912109 40.24259766 1.92074219 41.29769531 1.91210938 42.38476562 C1.90888672 43.40634766 1.90566406 44.42792969 1.90234375 45.48046875 C1.89710693 46.41785889 1.89187012 47.35524902 1.88647461 48.32104492 C1.99944425 50.98688548 2.44281256 53.39560927 3 56 C3.25 59.625 3.25 59.625 3 63 C2.01 63.99 1.02 64.98 0 66 C0 44.22 0 22.44 0 0 Z " fill="#C14991" transform="translate(401,219)"/>
<path d="M0 0 C0.33 0 0.66 0 1 0 C1 21.12 1 42.24 1 64 C0.67 64 0.34 64 0 64 C-0.33 55.09 -0.66 46.18 -1 37 C-4.47037417 37 -6.06367674 37.1177415 -9 39 C-10.05556072 41.9458761 -10.57345791 44.90597826 -11 48 C-11.33 48 -11.66 48 -12 48 C-13.3302664 38.02300197 -13.09502917 28.04385176 -13 18 C-12.67 18 -12.34 18 -12 18 C-11.67 23.94 -11.34 29.88 -11 36 C-7.7 34.68 -4.4 33.36 -1 32 C-0.67 21.44 -0.34 10.88 0 0 Z " fill="#804A71" transform="translate(377,219)"/>
<path d="M0 0 C5.59075908 0.76237624 5.59075908 0.76237624 7.9375 2.125 C11.0826679 3.45931365 13.72352669 2.63009102 17 2 C17 1.34 17 0.68 17 0 C18.32 0.33 19.64 0.66 21 1 C14.54507967 6.1433041 7.47846906 8.68373018 -0.79296875 8.33203125 C-3.75656388 7.88618066 -5.73874147 6.95975739 -8 5 C-8 4.34 -8 3.68 -8 3 C-6.7934375 3.2475 -6.7934375 3.2475 -5.5625 3.5 C-3.2715557 4.03191839 -3.2715557 4.03191839 -2 4 C-1.34 2.68 -0.68 1.36 0 0 Z " fill="#A71FD2" transform="translate(200,313)"/>
<path d="M0 0 C0.33 0 0.66 0 1 0 C0.35021567 10.17995457 -5.69493723 18.17871622 -13 25 C-13.66 25 -14.32 25 -15 25 C-15 25.66 -15 26.32 -15 27 C-16.65 27.66 -18.3 28.32 -20 29 C-20.33 28.01 -20.66 27.02 -21 26 C-19.68 26 -18.36 26 -17 26 C-17 23.36 -17 20.72 -17 18 C-16.01 18 -15.02 18 -14 18 C-14 18.66 -14 19.32 -14 20 C-12.68 20 -11.36 20 -10 20 C-9.71125 19.13375 -9.4225 18.2675 -9.125 17.375 C-7.75 13.25 -6.375 9.125 -5 5 C-4.01 5.33 -3.02 5.66 -2 6 C-1.855625 5.38125 -1.71125 4.7625 -1.5625 4.125 C-1 2 -1 2 0 0 Z " fill="#912F79" transform="translate(470,287)"/>
<path d="M0 0 C0.4125 0.556875 0.825 1.11375 1.25 1.6875 C1.8275 2.450625 2.405 3.21375 3 4 C3.5775 4.845625 4.155 5.69125 4.75 6.5625 C8.59048942 10.72303021 11.83908038 11.86164077 17.35546875 12.21484375 C24.82214295 12.2856552 31.70219768 11.50248871 39 10 C39 10.66 39 11.32 39 12 C39.99 12.33 40.98 12.66 42 13 C38.90509624 13.91700852 36.21289068 14 33 14 C32.30390625 14.17144531 31.6078125 14.34289062 30.890625 14.51953125 C26.93477425 15.17705779 23.17747629 14.9280188 19.1875 14.6875 C18.41857422 14.65205078 17.64964844 14.61660156 16.85742188 14.58007812 C11.6778284 14.28722347 6.99711301 13.39600078 2 12 C2 10.68 2 9.36 2 8 C1.34 7.67 0.68 7.34 0 7 C0 4.69 0 2.38 0 0 Z " fill="#BF51A3" transform="translate(422,273)"/>
<path d="M0 0 C2.68444486 0.53379451 5.29713693 0.8180111 8.0234375 1.0390625 C12.14253904 1.40505698 15.78288874 2.25817704 19.7109375 3.5390625 C19.7109375 3.8690625 19.7109375 4.1990625 19.7109375 4.5390625 C11.5312819 4.72706924 3.68486931 4.22496272 -4.4140625 3.1015625 C-6.43734124 2.8308421 -8.46077779 2.56129826 -10.484375 2.29296875 C-11.44891602 2.16422363 -12.41345703 2.03547852 -13.40722656 1.90283203 C-17.69296153 1.36185058 -21.98797129 0.93713591 -26.2890625 0.5390625 C-26.2890625 0.2090625 -26.2890625 -0.1209375 -26.2890625 -0.4609375 C-17.28808965 -1.25012232 -8.92248624 -1.83338758 0 0 Z " fill="#8D2691" transform="translate(342.2890625,309.4609375)"/>
<path d="M0 0 C0.66 0.33 1.32 0.66 2 1 C1.01 1.33 0.02 1.66 -1 2 C-1 2.66 -1 3.32 -1 4 C6.93492964 5.39948245 14.74680045 6.30229815 22.79296875 6.57006836 C27.78875804 6.78875804 27.78875804 6.78875804 30 9 C22.10024463 9.2788149 14.49984856 8.67274314 6.67675781 7.71582031 C0.43218587 6.97944465 -5.71152649 6.77805388 -12 7 C-12 6.34 -12 5.68 -12 5 C-13.65 4.67 -15.3 4.34 -17 4 C-14.32451756 3.21965095 -11.85540591 2.87282288 -9.0625 2.5625 C-5.75108751 2.18634327 -3.08683615 1.27105018 0 0 Z " fill="#6B1E72" transform="translate(260,297)"/>
<path d="M0 0 C0.66 0.33 1.32 0.66 2 1 C1.67 1.66 1.34 2.32 1 3 C2.32 3 3.64 3 5 3 C5 3.66 5 4.32 5 5 C3.02 5.33 1.04 5.66 -1 6 C3.62 6.66 8.24 7.32 13 8 C13 8.33 13 8.66 13 9 C-6.00939646 9.28948319 -6.00939646 9.28948319 -12 6 C-12 5.34 -12 4.68 -12 4 C-9.08493545 2.05662363 -8.17028308 1.72325333 -4.875 1.4375 C-1.22536034 1.43313101 -1.22536034 1.43313101 0 0 Z " fill="#BB2CCC" transform="translate(271,295)"/>
<path d="M0 0 C1.97909398 -0.02686553 3.95828971 -0.04633375 5.9375 -0.0625 C7.03964844 -0.07410156 8.14179688 -0.08570313 9.27734375 -0.09765625 C12 0 12 0 13 1 C13.10002455 3.65653443 13.13877463 6.28129272 13.125 8.9375 C13.12886719 9.67935547 13.13273437 10.42121094 13.13671875 11.18554688 C13.12663501 16.74672998 13.12663501 16.74672998 12 19 C9.35139573 19.59355614 6.70802678 19.74209269 4 20 C4.99 20.99 5.98 21.98 7 23 C6.01 23.33 5.02 23.66 4 24 C4 23.34 4 22.68 4 22 C2.35 22 0.7 22 -1 22 C-0.67 20.68 -0.34 19.36 0 18 C3.63 18 7.26 18 11 18 C11 12.39 11 6.78 11 1 C7.37 1 3.74 1 0 1 C0 0.67 0 0.34 0 0 Z " fill="#7B6970" transform="translate(445,218)"/>
<path d="M0 0 C-3.76478913 1.53611235 -7.53767967 3.05122452 -11.3125 4.5625 C-12.38435547 5.00013672 -13.45621094 5.43777344 -14.56054688 5.88867188 C-15.58857422 6.29794922 -16.61660156 6.70722656 -17.67578125 7.12890625 C-18.62364502 7.51119385 -19.57150879 7.89348145 -20.5480957 8.28735352 C-23 9 -23 9 -26 8 C-25.34 8 -24.68 8 -24 8 C-24 7.34 -24 6.68 -24 6 C-22.68 6 -21.36 6 -20 6 C-20.33 4.68 -20.66 3.36 -21 2 C-18.21406227 0.10556234 -17.09859834 -0.01488277 -13.6875 0.5 C-8.62165735 1.18689392 -4.76437057 -1.58812352 0 0 Z " fill="#8D1FA4" transform="translate(247,305)"/>
<path d="M0 0 C7.0693331 8.04441352 8.16749189 16.07982871 8.0625 26.3125 C8.05798828 27.14845703 8.05347656 27.98441406 8.04882812 28.84570312 C8.03710548 30.89716649 8.01917203 32.94859273 8 35 C7.67 35 7.34 35 7 35 C6.93941406 34.00097656 6.87882812 33.00195312 6.81640625 31.97265625 C6.73261719 30.68230469 6.64882813 29.39195312 6.5625 28.0625 C6.48128906 26.77472656 6.40007812 25.48695313 6.31640625 24.16015625 C6.35080812 21.13976043 6.35080812 21.13976043 5 20 C4.75820596 17.71191198 4.61663401 15.42534185 4.4765625 13.12890625 C4.17126245 10.61527629 4.17126245 10.61527629 1 9 C0.48828125 6.8359375 0.48828125 6.8359375 0.3125 4.375 C0.24675781 3.55773437 0.18101562 2.74046875 0.11328125 1.8984375 C0.07589844 1.27195313 0.03851563 0.64546875 0 0 Z " fill="#963872" transform="translate(464,252)"/>
<path d="M0 0 C0.33 0 0.66 0 1 0 C1 7.26 1 14.52 1 22 C3.31 21.34 5.62 20.68 8 20 C7.67 20.66 7.34 21.32 7 22 C6.34 22 5.68 22 5 22 C5 22.66 5 23.32 5 24 C4.01 24 3.02 24 2 24 C1.67 30.6 1.34 37.2 1 44 C0.67 44 0.34 44 0 44 C0 29.48 0 14.96 0 0 Z " fill="#562B47" transform="translate(401,219)"/>
<path d="M0 0 C-1.6029053 0.81498562 -3.20737278 1.62689927 -4.8125 2.4375 C-5.70582031 2.88996094 -6.59914063 3.34242188 -7.51953125 3.80859375 C-10 5 -10 5 -13 6 C-13.33 6.66 -13.66 7.32 -14 8 C-18.28769786 9.29930238 -22.56510345 9.07516774 -27 9 C-22.93113887 6.28742591 -18.58228973 4.6453659 -14.0625 2.8125 C-12.7022168 2.24112305 -12.7022168 2.24112305 -11.31445312 1.65820312 C-10.43853516 1.30306641 -9.56261719 0.94792969 -8.66015625 0.58203125 C-7.86230713 0.25436768 -7.06445801 -0.0732959 -6.24243164 -0.41088867 C-3.74238774 -1.06767756 -2.41095125 -0.84498691 0 0 Z " fill="#902997" transform="translate(289,288)"/>
<path d="M0 0 C1.76923828 0.01353516 1.76923828 0.01353516 3.57421875 0.02734375 C4.47785156 0.03894531 5.38148438 0.05054688 6.3125 0.0625 C6.3125 0.3925 6.3125 0.7225 6.3125 1.0625 C5.16974609 1.11857422 5.16974609 1.11857422 4.00390625 1.17578125 C-8.90898767 1.99795053 -16.90803358 5.68010021 -26.6875 14.0625 C-25.94677703 9.77556579 -24.0727176 8.13335985 -20.796875 5.453125 C-17.34346421 3.17643196 -13.64984911 2.12987699 -9.6875 1.0625 C-6.26517028 -0.07827657 -3.60076783 -0.03565117 0 0 Z " fill="#9A989A" transform="translate(259.6875,215.9375)"/>
<path d="M0 0 C1.32 0.33 2.64 0.66 4 1 C-3.30719838 6.82240236 -10.77068219 8.70692647 -20 8 C-20 7.67 -20 7.34 -20 7 C-16.7 6.67 -13.4 6.34 -10 6 C-10 5.34 -10 4.68 -10 4 C-6.38026598 2.68373308 -3.90432869 2 0 2 C0 1.34 0 0.68 0 0 Z " fill="#721888" transform="translate(217,313)"/>
<path d="M0 0 C1.98 0.66 3.96 1.32 6 2 C6 3.32 6 4.64 6 6 C5.01 6 4.02 6 3 6 C2.67 6.99 2.34 7.98 2 9 C1.34 9 0.68 9 0 9 C0 8.34 0 7.68 0 7 C-0.66 7 -1.32 7 -2 7 C-1.125 2.25 -1.125 2.25 0 0 Z " fill="#C04986" transform="translate(458,249)"/>
<path d="M0 0 C0.33 0 0.66 0 1 0 C1 6.27 1 12.54 1 19 C2.65 19 4.3 19 6 19 C5.2884375 19.7734375 5.2884375 19.7734375 4.5625 20.5625 C2.57190593 23.66782675 2.34939182 26.36632504 2 30 C1.67 30 1.34 30 1 30 C-0.3302664 20.02300197 -0.09502917 10.04385176 0 0 Z " fill="#975687" transform="translate(364,237)"/>
<path d="M0 0 C0.33 0 0.66 0 1 0 C3.54759899 13.8525695 3.54759899 13.8525695 3 19 C2.01 19.99 1.02 20.98 0 22 C0 14.74 0 7.48 0 0 Z " fill="#B54A9E" transform="translate(401,263)"/>
<path d="M0 0 C0 0.99 0 1.98 0 3 C-4.455 3.495 -4.455 3.495 -9 4 C-9.33 4.99 -9.66 5.98 -10 7 C-12.64 7 -15.28 7 -18 7 C-15.05054406 5.03369604 -12.26302526 3.74259147 -9 2.375 C-7.948125 1.92898438 -6.89625 1.48296875 -5.8125 1.0234375 C-3 0 -3 0 0 0 Z " fill="#853076" transform="translate(341,266)"/>
<path d="M0 0 C0.66 0 1.32 0 2 0 C2.33 1.65 2.66 3.3 3 5 C6.13349732 6.04449911 6.98968256 5.93423645 10 5 C10.33 6.65 10.66 8.3 11 10 C10.34 9.34 9.68 8.68 9 8 C7.845 8.165 6.69 8.33 5.5 8.5 C4.345 8.665 3.19 8.83 2 9 C0 7 0 7 -0.125 3.375 C-0.08375 2.26125 -0.0425 1.1475 0 0 Z " fill="#BE5B96" transform="translate(444,257)"/>
<path d="M0 0 C2.475 0.495 2.475 0.495 5 1 C5 4.33333333 5 7.66666667 5 11 C4.01 10.67 3.02 10.34 2 10 C1.34 6.7 0.68 3.4 0 0 Z " fill="#C54399" transform="translate(458,270)"/>
<path d="M0 0 C5.61 0 11.22 0 17 0 C17.66 1.32 18.32 2.64 19 4 C19.66 4 20.32 4 21 4 C21 4.66 21 5.32 21 6 C19.35 6.66 17.7 7.32 16 8 C16 5.69 16 3.38 16 1 C10.72 1 5.44 1 0 1 C0 0.67 0 0.34 0 0 Z " fill="#7F777A" transform="translate(154,218)"/>
<path d="M0 0 C0.33 0.66 0.66 1.32 1 2 C3.12576782 2.46651207 3.12576782 2.46651207 5.5625 2.625 C6.38878906 2.69976562 7.21507812 2.77453125 8.06640625 2.8515625 C8.70449219 2.90054688 9.34257812 2.94953125 10 3 C10 3.66 10 4.32 10 5 C8.54364629 5.22174933 7.08477044 5.42698698 5.625 5.625 C4.81289063 5.74101562 4.00078125 5.85703125 3.1640625 5.9765625 C2.44992187 5.98429688 1.73578125 5.99203125 1 6 C0.34 5.34 -0.32 4.68 -1 4 C-0.625 1.875 -0.625 1.875 0 0 Z " fill="#8D4569" transform="translate(410,234)"/>
<path d="M0 0 C0 0.66 0 1.32 0 2 C-3.17746491 3.58873246 -6.54012202 3.41026221 -10 3 C-12.5 1.5 -12.5 1.5 -14 0 C-12.906875 0.020625 -11.81375 0.04125 -10.6875 0.0625 C-0.3625 -0.1125 -0.3625 -0.1125 0 0 Z " fill="#BC33BC" transform="translate(401,314)"/>
<path d="M0 0 C1.5 1.3125 1.5 1.3125 3 3 C3 3.99 3 4.98 3 6 C2.34 6 1.68 6 1 6 C1 7.32 1 8.64 1 10 C-0.65 10.66 -2.3 11.32 -4 12 C-4.33 11.01 -4.66 10.02 -5 9 C-3.68 9 -2.36 9 -1 9 C-1.020625 7.700625 -1.04125 6.40125 -1.0625 5.0625 C-1.08399454 3.70834367 -1.07148199 2.35243917 -1 1 C-0.67 0.67 -0.34 0.34 0 0 Z " fill="#A0338F" transform="translate(454,304)"/>
<path d="M0 0 C0.33 0 0.66 0 1 0 C0.67 2.31 0.34 4.62 0 7 C-1.32 7.33 -2.64 7.66 -4 8 C-4 9.32 -4 10.64 -4 12 C-4.66 12 -5.32 12 -6 12 C-6 9.69 -6 7.38 -6 5 C-4.68 5.33 -3.36 5.66 -2 6 C-1.855625 5.38125 -1.71125 4.7625 -1.5625 4.125 C-1 2 -1 2 0 0 Z " fill="#A83588" transform="translate(470,287)"/>
<path d="M0 0 C3.55007718 3.9050849 4.81819916 6.97734643 6 12 C3.5625 11.0625 3.5625 11.0625 1 9 C0.2475065 6.01122299 0.07090135 3.07454047 0 0 Z " fill="#8E355F" transform="translate(464,252)"/>
<path d="M0 0 C1.98 0.66 3.96 1.32 6 2 C6.33 3.65 6.66 5.3 7 7 C6.4225 6.690625 5.845 6.38125 5.25 6.0625 C3.15705816 5.07416636 1.25464725 4.4831387 -1 4 C-0.67 2.68 -0.34 1.36 0 0 Z " fill="#B921EA" transform="translate(193,312)"/>
<path d="M0 0 C3.625 0.375 3.625 0.375 6.0625 2.375 C6.8359375 3.365 6.8359375 3.365 7.625 4.375 C7.295 5.035 6.965 5.695 6.625 6.375 C6.295 5.385 5.965 4.395 5.625 3.375 C1.995 3.045 -1.635 2.715 -5.375 2.375 C-3.375 0.375 -3.375 0.375 0 0 Z " fill="#939291" transform="translate(331.375,233.625)"/>
<path d="M0 0 C1.32 0.33 2.64 0.66 4 1 C0.79663178 3.83374881 -1.78087253 4.5205537 -6 5 C-6 4.34 -6 3.68 -6 3 C-4.02 2.67 -2.04 2.34 0 2 C0 1.34 0 0.68 0 0 Z " fill="#7C1D92" transform="translate(217,313)"/>
<path d="M0 0 C5.875 3.625 5.875 3.625 7 7 C6.01 7.495 6.01 7.495 5 8 C5 7.34 5 6.68 5 6 C3.68 5.67 2.36 5.34 1 5 C0.67 3.35 0.34 1.7 0 0 Z " fill="#903960" transform="translate(455,243)"/>
<path d="M0 0 C1 3 1 3 0 6 C0.66 6.33 1.32 6.66 2 7 C-0.97 9.475 -0.97 9.475 -4 12 C-3.52309796 10.37433394 -3.04340334 8.74948689 -2.5625 7.125 C-2.29566406 6.22007812 -2.02882813 5.31515625 -1.75390625 4.3828125 C-1 2 -1 2 0 0 Z " fill="#979596" transform="translate(73,192)"/>
<path d="M0 0 C-2 3 -2 3 -4.125 3.6875 C-4.74375 3.790625 -5.3625 3.89375 -6 4 C-6 2.68 -6 1.36 -6 0 C-3.50907189 -1.24546405 -2.58919267 -0.7767578 0 0 Z " fill="#BD2EC9" transform="translate(286,291)"/>
<path d="M0 0 C2.01136276 2.55991624 3.62845496 5.04590299 5 8 C3.35 7.67 1.7 7.34 0 7 C0 4.69 0 2.38 0 0 Z " fill="#C25CA8" transform="translate(422,273)"/>
<path d="M0 0 C0.66 0.33 1.32 0.66 2 1 C0.9375 2.5 0.9375 2.5 -1 4 C-4.6875 4.1875 -4.6875 4.1875 -8 4 C-5.31143836 2.20762558 -3.0466145 1.01553817 0 0 Z " fill="#88336A" transform="translate(374,252)"/>
<path d="M0 0 C0 0.66 0 1.32 0 2 C-3 4 -3 4 -5 5 C-5.66 4.67 -6.32 4.34 -7 4 C-7 3.34 -7 2.68 -7 2 C-4 0 -4 0 0 0 Z " fill="#B232C3" transform="translate(266,297)"/>
<path d="M0 0 C-6.4 3.07692308 -6.4 3.07692308 -9.4375 2.6875 C-9.953125 2.460625 -10.46875 2.23375 -11 2 C-3.57142857 -1.57142857 -3.57142857 -1.57142857 0 0 Z " fill="#7D297E" transform="translate(289,288)"/>
<path d="M0 0 C1.65 1.65 3.3 3.3 5 5 C2.69 4.67 0.38 4.34 -2 4 C-2 3.01 -2 2.02 -2 1 C-1.34 0.67 -0.68 0.34 0 0 Z " fill="#BC42A5" transform="translate(426,281)"/>
<path d="M0 0 C-0.99 0.33 -1.98 0.66 -3 1 C-3 1.66 -3 2.32 -3 3 C-3.99 3 -4.98 3 -6 3 C-6.33 3.66 -6.66 4.32 -7 5 C-7.33 3.68 -7.66 2.36 -8 1 C-2.25 -1.125 -2.25 -1.125 0 0 Z " fill="#95436D" transform="translate(409,240)"/>
</svg>
